<?xml version="1.0" encoding="UTF-8"?><svg id="Camada_2" xmlns="http://www.w3.org/2000/svg" viewBox="0 0 600.73 102.96"><defs><style>.cls-1{fill:#603d90;}.cls-1,.cls-2{stroke-width:0px;}.cls-2{fill:#4e4d4d;}</style></defs><g id="Camada_1-2"><path class="cls-1" d="M29.61,34.15h31.86l-2.92,13.8h-31.86l-3.03,14.58h34.66l-3.48,16.49H0L15.93,4.2h54.06l-3.48,16.49h-33.99l-2.92,13.46Z"/><path class="cls-1" d="M84.35,66.11l-6.28,12.9h-20.86L95.57,4.2h30.4l6.84,74.82h-20.41l-1.12-12.9h-26.92ZM107.9,19.12l-16.15,32.53h18.62l-2.47-32.53Z"/><path class="cls-1" d="M187.88,27.53c.56-2.24.67-3.14.67-4.26,0-3.37-2.24-4.37-9.53-4.37s-9.98.67-11.67,2.8c-1.35,1.57-2.24,4.49-2.24,7.07,0,3.25,1.01,3.81,8.86,4.26,17.95,1.35,18.06,1.35,22.55,2.8,5.27,1.79,7.96,5.5,7.96,10.99,0,2.8-1.12,9.2-2.58,14.02-2.58,8.97-6.17,13.35-13.46,16.15-4.94,1.91-10.32,2.58-21.09,2.58-15.37,0-21.42-1.01-25.91-4.26-2.24-1.68-3.81-5.27-3.81-9.09,0-3.14.34-5.83,1.57-11.44h19.07c-.56,2.36-.67,3.25-.67,4.49,0,1.57.67,2.92,1.79,3.59,1.91,1.01,2.24,1.01,10.99,1.01,6.17,0,6.84-.11,8.64-1.01,2.8-1.46,4.6-4.93,4.6-8.97,0-3.14-1.57-4.04-8.3-4.49-12.23-.79-18.06-1.35-21.76-2.24-6.39-1.68-9.31-5.38-9.31-11.78,0-8.86,3.7-20.19,7.96-24.56,5.16-5.38,12.79-7.18,29.84-7.18,13.57,0,18.84,1.01,22.77,4.15,2.24,1.79,3.7,5.5,3.7,9.42,0,3.03-.45,5.61-1.57,10.32h-19.07Z"/><path class="cls-1" d="M248.33,52.99l-5.5,26.02h-20.08l5.5-26.02-16.04-48.79h22.88l3.7,14.36,1.79,7.29c.34,1.12.34,1.35,1.68,7.18h.67c1.46-2.24,3.25-4.82,4.94-7.18l5.05-7.29,9.98-14.36h23.11l-37.69,48.79Z"/><path class="cls-2" d="M306.94,54.85h-24.94l-12.32,23.38h-9.5L300.35,4.73h8.75l9.25,73.5h-8.55l-2.87-23.38ZM306.03,47.01l-1.76-15.03c-.8-6-1.29-11.86-1.46-17.6-1.24,2.95-2.59,5.88-4.05,8.8-1.46,2.92-5.64,10.86-12.54,23.83h19.81Z"/><path class="cls-2" d="M378.52,23.13l-1.26,5.38-10.61,1.21c1.37,2.08,2.06,4.73,2.06,7.94,0,6.4-1.95,11.5-5.86,15.31-3.9,3.8-9.12,5.71-15.66,5.71-1.84,0-3.25-.13-4.22-.4-4.66,1.78-6.99,3.97-6.99,6.59,0,1.38.55,2.29,1.66,2.74,1.11.45,2.71.81,4.83,1.08l5.88.7c6.07.74,10.46,2.21,13.2,4.42,2.73,2.21,4.1,5.46,4.1,9.75,0,6.17-2.45,10.94-7.34,14.33-4.89,3.38-11.78,5.08-20.66,5.08-6.5,0-11.6-1.23-15.28-3.69-3.69-2.46-5.53-5.94-5.53-10.43,0-3.52,1.21-6.57,3.62-9.15,2.41-2.58,6.32-4.78,11.71-6.59-2.61-1.37-3.92-3.4-3.92-6.08,0-2.31.86-4.3,2.56-5.96,1.71-1.66,4.09-3.21,7.14-4.65-2.11-1.07-3.84-2.66-5.18-4.75-1.34-2.09-2.01-4.53-2.01-7.32,0-6.5,2-11.83,6.01-15.99,4.01-4.16,9.12-6.23,15.36-6.23,2.61,0,5.19.34,7.74,1.01h18.65ZM324.98,88.03c0,2.58,1.09,4.63,3.27,6.13,2.18,1.51,5.41,2.26,9.7,2.26,6.1,0,10.87-1.06,14.3-3.19,3.44-2.13,5.15-5.14,5.15-9.02,0-2.08-.9-3.72-2.71-4.93s-4.89-2.04-9.25-2.51l-7.99-.8c-4.02.84-7.11,2.31-9.25,4.42-2.15,2.11-3.22,4.66-3.22,7.64ZM338.96,44.04c0,2.85.75,5.02,2.26,6.51,1.51,1.49,3.6,2.24,6.28,2.24s4.96-.7,6.94-2.11,3.49-3.34,4.55-5.81,1.58-5.14,1.58-8.02-.74-4.84-2.21-6.28c-1.48-1.44-3.59-2.16-6.33-2.16s-4.9.68-6.86,2.04c-1.96,1.36-3.49,3.25-4.57,5.68-1.09,2.43-1.63,5.07-1.63,7.92Z"/><path class="cls-2" d="M399.54,79.23c-6.17,0-11.01-1.83-14.53-5.48-3.52-3.65-5.28-8.71-5.28-15.18s1.25-12.34,3.75-18.12c2.5-5.78,5.81-10.28,9.93-13.5,4.12-3.22,8.66-4.83,13.62-4.83s8.98,1.11,11.56,3.34c2.58,2.23,3.87,5.34,3.87,9.33,0,6.03-2.78,10.77-8.34,14.2-5.56,3.44-13.52,5.15-23.88,5.15h-1.66l-.2,4.02c0,4.39,1.03,7.82,3.09,10.28,2.06,2.46,5.25,3.69,9.58,3.69,2.11,0,4.28-.3,6.51-.9,2.23-.6,5-1.71,8.32-3.32v7.34c-3.15,1.48-5.93,2.51-8.35,3.09s-5.08.88-7.99.88ZM406.53,29.31c-3.45,0-6.69,1.58-9.73,4.73-3.03,3.15-5.35,7.52-6.96,13.12h.6c7.64,0,13.5-1,17.57-2.99,4.07-1.99,6.11-4.88,6.11-8.67,0-1.78-.61-3.25-1.83-4.42-1.22-1.17-3.14-1.76-5.76-1.76Z"/><path class="cls-2" d="M462.23,78.22l7.44-34.79c.67-3.49,1-5.9,1-7.24,0-2.11-.6-3.8-1.78-5.08-1.19-1.27-3.09-1.91-5.71-1.91-2.98,0-5.89,1.01-8.72,3.02-2.83,2.01-5.33,4.88-7.49,8.6-2.16,3.72-3.8,8.23-4.9,13.52l-5.08,23.88h-8.45l11.76-55.1h6.99l-1.11,10.21h.5c3.22-4.09,6.33-6.98,9.33-8.67,3-1.69,6.11-2.54,9.33-2.54,4.26,0,7.62,1.17,10.08,3.49,2.46,2.33,3.69,5.59,3.69,9.78,0,2.65-.39,5.66-1.16,9.05l-7.19,33.78h-8.55Z"/><path class="cls-2" d="M517.13,22.22c6.5,0,11.21,3.18,14.13,9.55h.5c.57-5.19,1.32-9.79,2.26-13.77l3.92-18h8.35l-16.59,78.22h-6.99l1.11-10.51h-.4c-3.39,4.19-6.55,7.16-9.5,8.9-2.95,1.74-6,2.61-9.15,2.61-4.66,0-8.29-1.64-10.91-4.93-2.61-3.28-3.92-7.84-3.92-13.67,0-7.17,1.21-13.74,3.62-19.71,2.41-5.97,5.67-10.57,9.78-13.82,4.11-3.25,8.71-4.88,13.8-4.88ZM507.57,72.24c3.15,0,6.4-1.57,9.75-4.7,3.35-3.13,6.01-7.14,7.97-12.01,1.96-4.88,2.94-9.85,2.94-14.91,0-3.72-.9-6.55-2.71-8.5-1.81-1.94-4.44-2.92-7.89-2.92s-6.53,1.38-9.43,4.15-5.23,6.65-6.99,11.66c-1.76,5.01-2.64,10.28-2.64,15.81,0,7.61,3,11.41,9,11.41Z"/><path class="cls-2" d="M576.55,22.12c3.08,0,5.83.83,8.24,2.49,2.41,1.66,4.29,4.05,5.63,7.16h.55l3.37-8.65h6.39l-11.71,55.1h-6.69l1.31-10.51h-.4c-6,7.68-12.32,11.51-18.95,11.51-4.66,0-8.31-1.66-10.96-4.98-2.65-3.32-3.97-7.86-3.97-13.62,0-6.97,1.19-13.44,3.57-19.41,2.38-5.97,5.66-10.64,9.85-14.03,4.19-3.38,8.78-5.08,13.78-5.08ZM567,72.24c3.25,0,6.49-1.55,9.7-4.65s5.83-7.14,7.84-12.12c2.01-4.98,3.02-9.96,3.02-14.96,0-3.45-.94-6.2-2.82-8.24-1.88-2.04-4.34-3.07-7.39-3.07-3.49,0-6.73,1.44-9.73,4.32-3,2.88-5.35,6.79-7.06,11.71-1.71,4.93-2.56,10.12-2.56,15.58,0,3.82.79,6.68,2.36,8.57,1.57,1.89,3.79,2.84,6.64,2.84Z"/></g></svg>